<?xml version="1.0" encoding="utf-8"?>
<!-- Generator: Adobe Illustrator 23.0.0, SVG Export Plug-In . SVG Version: 6.00 Build 0)  -->
<svg version="1.1" id="Capa_1" xmlns="http://www.w3.org/2000/svg" xmlns:xlink="http://www.w3.org/1999/xlink" x="0px" y="0px"
	 viewBox="0 0 1200 1200" style="enable-background:new 0 0 1200 1200;" xml:space="preserve">
<style type="text/css">
	.st0{fill:#650006;}
	.st1{fill:#3496FF;}
	.st2{fill:#FFFFFF;}
	.st3{fill:#FCFCFC;}
</style>
<circle class="st0" cx="600" cy="600" r="600"/>
<circle class="st1" cx="600" cy="600" r="46.06"/>
<g>
	<path class="st2" d="M600.24,553.96c-25.73,0-46.63,20.81-46.63,46.4c0,25.64,20.88,46.4,46.63,46.4
		c25.75,0,46.61-20.78,46.61-46.4S626,553.96,600.24,553.96z M959,205.43C863.12,115.6,735.65,66.14,600.1,66.14
		s-263.01,49.46-358.9,139.33c-16.93,15.86-16.93,41.54,0,57.43c8.45,7.92,19.55,11.89,30.63,11.89c11.08,0,22.18-3.97,30.65-11.89
		c79.49-74.52,185.2-111.19,297.59-111.19c112.44,0,218.12,36.67,297.61,111.14c16.93,15.86,44.35,15.86,61.3,0
		C975.9,246.99,975.93,221.29,959,205.43z M599.73,228.55c-100.18,0-194.37,38.74-265.22,109.05c-17.67,17.56-17.67,46,0,63.56
		c8.85,8.8,20.43,13.19,32.02,13.19s23.17-4.39,32-13.19c53.73-53.34,125.21-85.64,201.2-85.64c75.96,0,147.46,32.32,201.17,85.64
		c17.7,17.56,46.35,17.56,64.02,0c17.7-17.56,17.7-46,0-63.56C794.08,267.29,699.86,228.55,599.73,228.55z M600.13,391.04
		c-56.66,0-109.91,22.73-149.99,64c-16.6,17.09-16.6,44.87,0,61.96c8.27,8.52,19.16,12.79,30.05,12.79
		c10.87,0,21.74-4.27,30.03-12.79c24.01-24.75,55.94-39.83,89.92-39.83c33.93,0,65.86,15.05,89.92,39.78
		c16.6,17.09,43.47,17.09,60.1,0c16.56-17.09,16.56-44.82,0-61.91C710.06,413.77,656.79,391.04,600.13,391.04z"/>
</g>
<g>
	<path class="st3" d="M600.5,845.29c-167.12,0-315.4-112.28-361.46-274.27c-6.6-23.22,6.87-47.39,30.08-53.99
		c23.22-6.6,47.39,6.87,53.99,30.08C358.79,672.6,474.13,759.3,603.58,757.87c125.28-1.35,237.72-86.86,273.43-207.96
		c6.83-23.15,31.13-36.38,54.28-29.55c23.15,6.83,36.38,31.13,29.55,54.28c-11.5,39-29.12,75.68-52.34,109.01
		c-22.65,32.5-50.15,61.14-81.75,85.13c-31.59,23.99-66.51,42.74-103.77,55.74c-38.21,13.33-78.07,20.31-118.46,20.75
		C603.18,845.28,601.84,845.29,600.5,845.29z"/>
</g>
<g>
	<path class="st3" d="M601.18,1122.05c-24.14,0-43.7-19.57-43.7-43.7V830.32c0-24.13,19.57-43.7,43.7-43.7
		c24.14,0,43.7,19.57,43.7,43.7v248.03C644.88,1102.48,625.32,1122.05,601.18,1122.05z"/>
</g>
<g>
	<path class="st3" d="M950.79,994.49c-11.18,0-22.37-4.27-30.9-12.8L739.18,800.98c-17.07-17.07-17.07-44.74,0-61.8
		s44.74-17.07,61.8,0l180.71,180.71c17.07,17.07,17.07,44.74,0,61.8C973.16,990.22,961.97,994.49,950.79,994.49z"/>
</g>
<g>
	<path class="st3" d="M747.63,1022.85c-18.5,0-35.67-11.83-41.61-30.39l-56.69-177.17c-7.36-22.99,5.32-47.58,28.3-54.94
		c22.98-7.36,47.58,5.32,54.94,28.3l56.69,177.17c7.36,22.99-5.32,47.58-28.3,54.94C756.53,1022.17,752.04,1022.85,747.63,1022.85z"
		/>
</g>
<g>
	<path class="st3" d="M1009.85,822.06c-4.69,0-9.45-0.76-14.14-2.36L809.1,755.92c-22.84-7.81-35.03-32.65-27.22-55.49
		c7.81-22.84,32.65-35.02,55.49-27.22l186.61,63.78c22.84,7.81,35.03,32.65,27.22,55.49
		C1044.99,810.63,1028.02,822.06,1009.85,822.06z"/>
</g>
<g>
	<path class="st3" d="M249.21,994.49c-11.19,0-22.37-4.27-30.9-12.8c-17.07-17.07-17.07-44.74,0-61.8l180.71-180.71
		c17.07-17.07,44.74-17.07,61.8,0c17.07,17.07,17.07,44.74,0,61.8L280.11,981.69C271.58,990.22,260.4,994.49,249.21,994.49z"/>
</g>
<g>
	<path class="st3" d="M452.37,1022.85c-4.41,0-8.9-0.67-13.33-2.09c-22.99-7.36-35.66-31.95-28.3-54.94l56.69-177.17
		c7.36-22.99,31.95-35.66,54.94-28.3c22.99,7.36,35.66,31.95,28.3,54.94l-56.69,177.17
		C488.05,1011.01,470.87,1022.85,452.37,1022.85z"/>
</g>
<g>
	<path class="st3" d="M190.15,822.06c-18.17,0-35.14-11.42-41.35-29.58c-7.81-22.84,4.38-47.68,27.22-55.49l186.61-63.78
		c22.84-7.8,47.68,4.38,55.48,27.22c7.81,22.84-4.38,47.68-27.22,55.49L204.29,819.7C199.61,821.3,194.84,822.06,190.15,822.06z"/>
</g>
</svg>
